Coordinates
version=1
nRows=16
nColumns=40
inDegrees=yes

Units are S.I. units (second, meters, Newtons, ...)
Angles are in degrees.

endheader
time	pelvis_tilt	pelvis_list	pelvis_rotation	pelvis_tx	pelvis_ty	pelvis_tz	hip_flexion_r	hip_adduction_r	hip_rotation_r	knee_angle_r	knee_angle_r_beta	ankle_angle_r	subtalar_angle_r	mtp_angle_r	hip_flexion_l	hip_adduction_l	hip_rotation_l	knee_angle_l	knee_angle_l_beta	ankle_angle_l	subtalar_angle_l	mtp_angle_l	lumbar_extension	lumbar_bending	lumbar_rotation	arm_flex_r	arm_add_r	arm_rot_r	elbow_flex_r	pro_sup_r	wrist_flex_r	wrist_dev_r	arm_flex_l	arm_add_l	arm_rot_l	elbow_flex_l	pro_sup_l	wrist_flex_l	wrist_dev_l
     19.70750000	     -3.93001569	     -5.43540933	      6.00944034	      1.03218536	      0.93029016	      0.48228634	     10.15369337	      4.26805484	    -13.62674925	     15.65258427	     15.65258427	     11.55477484	     -3.71367335	     -2.58023991	     36.50506969	     -9.83521538	      3.53712784	     52.30744861	     52.30744861	     10.31645568	    -18.92039629	     16.11973590	    -10.13810066	      4.58689092	      2.30880291	     27.21909201	    -18.39990470	      3.77360734	     73.08474231	     44.44996753	      0.00000000	      0.00000000	      1.75906802	     -6.73034861	     -4.57557136	     27.05485307	     46.43674663	      0.00000000	      0.00000000
     19.71985714	     -4.09898789	     -5.15789480	      6.16942197	      1.03162788	      0.93027488	      0.48140872	      9.72796185	      3.97874494	    -13.54521225	     15.49320115	     15.49320115	     11.88196882	     -3.81211729	     -2.60192350	     36.71756529	     -8.98797694	      3.74430294	     48.50541356	     48.50541356	     10.43853647	    -18.67869965	     16.28710237	    -10.07473101	      4.32108318	      2.18967347	     29.41870096	    -18.23159740	      3.42386482	     74.94800908	     44.41658132	      0.00000000	      0.00000000	      0.57817851	     -6.61257627	     -4.50441915	     26.27541474	     46.40289297	      0.00000000	      0.00000000
     19.73221429	     -4.31998514	     -4.98376748	      6.33830187	      1.03101193	      0.92999207	      0.48039952	      9.39462302	      3.76874328	    -13.55814420	     15.37930138	     15.37930138	     12.20530835	     -3.85834272	     -2.64140822	     36.89443407	     -8.21472268	      4.09042041	     44.63075780	     44.63075780	     10.55202618	    -18.15512376	     16.30949617	     -9.95445608	      4.19568878	      2.06443605	     31.57892225	    -18.12288266	      3.15673196	     77.00293529	     44.37251078	      0.00000000	      0.00000000	     -0.58413847	     -6.41212244	     -4.42944747	     25.56374651	     46.36878228	      0.00000000	      0.00000000
     19.74457143	     -4.39752830	     -4.89601603	      6.50939578	      1.03066953	      0.92972103	      0.47934352	      8.94807481	      3.62091821	    -13.79842103	     15.40089888	     15.40089888	     12.81587822	     -3.47063372	     -2.21675752	     36.62498164	     -7.60025189	      4.46220614	     40.36273528	     40.36273528	      9.19441851	    -17.73116563	     12.29147670	    -10.11539257	      4.20913094	      2.45700415	     32.26566846	    -18.60871750	      2.73254621	     82.67573493	     44.28971840	      0.00000000	      0.00000000	     -1.24190818	     -6.28882281	     -3.84353497	     24.33646182	     46.23402154	      0.00000000	      0.00000000
     19.75692857	     -4.55949399	     -4.71864696	      6.61214046	      1.03026842	      0.92934684	      0.47820685	      8.56890576	      3.39665624	    -13.79503337	     15.36044067	     15.36044067	     13.18244324	     -3.45701027	     -2.30374992	     36.48177616	     -6.92688580	      4.78588991	     36.50278257	     36.50278257	      9.48777915	    -16.48494718	     12.34457820	    -10.05776277	      4.07936020	      2.32906173	     34.31118190	    -18.23181649	      2.54475374	     84.54765116	     44.25320467	      0.00000000	      0.00000000	     -2.35942909	     -6.20296357	     -3.74495143	     23.76948696	     46.19424586	      0.00000000	      0.00000000
     19.76928571	     -4.69581059	     -4.69502525	      6.72653230	      1.02999365	      0.92878151	      0.47698578	      8.19412762	      3.29041203	    -14.07794214	     15.39273815	     15.39273815	     13.70218619	     -3.01705057	     -2.05419252	     36.23897958	     -6.47878846	      5.06499777	     32.68032215	     32.68032215	      8.96422387	    -15.18577396	     10.20283526	    -10.09856846	      4.16932646	      2.53787106	     35.71349606	    -18.38602157	      2.42611565	     88.27701943	     44.22080776	      0.00000000	      0.00000000	     -3.44656786	     -6.12934873	     -3.14893348	     23.66141242	     46.04634529	      0.00000000	      0.00000000
     19.78164286	     -4.83539906	     -4.61349972	      6.80707727	      1.02982799	      0.92820540	      0.47575118	      7.78747040	      3.17140100	    -14.07605749	     15.35295339	     15.35295339	     14.10481671	     -2.98652403	     -2.14850013	     35.99008879	     -6.04589730	      5.14719074	     29.24468558	     29.24468558	      9.30938061	    -13.41213428	     10.34213382	    -10.02927600	      4.14324866	      2.38021647	     37.53593631	    -17.90487935	      2.30520169	     90.00141849	     44.18769414	      0.00000000	      0.00000000	     -4.45901365	     -6.06377830	     -3.03297515	     23.21314473	     46.00543302	      0.00000000	      0.00000000
     19.79400000	     -5.09114004	     -4.79285930	      6.88785773	      1.02964237	      0.92719144	      0.47446339	      7.56751657	      3.30066260	    -14.16350416	     15.36139342	     15.36139342	     14.42414979	     -2.95557262	     -2.25735559	     36.03906843	     -5.84230120	      5.33478540	     26.38310497	     26.38310497	      9.60659452	    -11.89557083	     10.54831241	     -9.75072646	      4.43348402	      2.54143144	     39.34841486	    -17.82337121	      2.10408804	     91.28027392	     44.16509135	      0.00000000	      0.00000000	     -5.34330649	     -5.90836606	     -2.98810279	     22.91399098	     45.97959536	      0.00000000	      0.00000000
     19.80635714	     -5.05700135	     -4.64652879	      6.91067860	      1.03001025	      0.92676338	      0.47310941	      6.87930120	      3.09713373	    -14.37992525	     15.26527552	     15.26527552	     15.01247860	     -2.34993424	     -2.01355564	     35.55607175	     -5.58362165	      4.62154038	     23.72743395	     23.72743395	      9.82117799	     -9.82090592	     10.16227252	     -9.98073320	      4.33814641	      2.41491292	     40.50089570	    -17.36419650	      2.39258897	     94.90607010	     44.09766014	      0.00000000	      0.00000000	     -6.53662657	     -5.97137822	     -2.60928915	     23.34322813	     45.87363950	      0.00000000	      0.00000000
     19.81871429	     -5.14410080	     -4.63188311	      6.89951094	      1.03037303	      0.92602428	      0.47176806	      6.38115733	      3.05315817	    -14.35511651	     15.21043586	     15.21043586	     15.39447046	     -2.25956185	     -2.04131234	     35.27266461	     -5.36967439	      4.14090708	     21.60049554	     21.60049554	      9.92529923	     -8.64836790	     10.39034416	     -9.90261444	      4.36254804	      2.36807778	     41.93254751	    -16.80933457	      2.36699417	     96.38898486	     44.06986469	      0.00000000	      0.00000000	     -7.39311335	     -5.93895659	     -2.48505415	     23.07770487	     45.83402186	      0.00000000	      0.00000000
     19.83107143	     -5.28172386	     -4.69011200	      6.88350835	      1.03086929	      0.92508518	      0.47033813	      5.92389797	      3.07228314	    -14.37317434	     15.13229193	     15.13229193	     15.75134506	     -2.11344453	     -2.07671440	     35.11655323	     -5.23985787	      3.55030068	     20.05165917	     20.05165917	      9.92156786	     -7.78058549	     10.55892902	     -9.72030890	      4.46643628	      2.41716839	     43.27517410	    -16.37723098	      2.36723769	     97.72576059	     44.04176471	      0.00000000	      0.00000000	     -8.12590879	     -5.86731960	     -2.41208709	     22.92947524	     45.80535148	      0.00000000	      0.00000000
     19.84342857	     -5.39078214	     -4.74583581	      6.80216905	      1.03162179	      0.92412219	      0.46891295	      5.40180388	      3.10032761	    -14.31722740	     15.01993139	     15.01993139	     16.14901077	     -1.88860771	     -2.11552844	     34.95734564	     -5.17142569	      2.74946262	     19.05965737	     19.05965737	      9.76388834	     -7.31644040	     10.69502799	     -9.53141113	      4.55319812	      2.48643510	     44.36531395	    -15.95037648	      2.41651127	     98.96929585	     44.01199377	      0.00000000	      0.00000000	     -8.89528157	     -5.85714508	     -2.37203586	     22.76227263	     45.78254944	      0.00000000	      0.00000000
     19.85578571	     -5.38124212	     -4.76910064	      6.75633730	      1.03273068	      0.92327046	      0.46735885	      4.65459702	      3.07520193	    -14.54007617	     14.81284409	     14.81284409	     16.69745676	     -1.20662841	     -1.84519702	     34.63321616	     -5.14706041	      1.66737807	     18.47379102	     18.47379102	      9.38004390	     -6.76367552	     10.15397685	     -9.52853385	      4.61310324	      2.36744437	     44.97407445	    -15.40960622	      2.75451530	    101.36666096	     43.96020859	      0.00000000	      0.00000000	     -9.75113138	     -5.91297820	     -2.20555154	     23.19681221	     45.72988517	      0.00000000	      0.00000000
     19.86814286	     -5.51147558	     -4.81726953	      6.60165045	      1.03388538	      0.92206795	      0.46586297	      4.14427473	      3.08235246	    -14.38190638	     14.72988640	     14.72988640	     17.09659757	     -1.05742295	     -1.89122390	     34.47197104	     -5.13673196	      0.83015027	     18.33125219	     18.33125219	      8.91565028	     -6.98778370	     10.25126016	     -9.20913727	      4.64196424	      2.62425862	     45.59810556	    -15.16786683	      2.76870723	    101.94533197	     43.94849930	      0.00000000	      0.00000000	    -10.29573635	     -5.95222108	     -2.19123012	     23.05560353	     45.71719483	      0.00000000	      0.00000000
     19.88050000	     -5.46512950	     -4.83004171	      6.50836339	      1.03542645	      0.92110063	      0.46416556	      3.31430484	      3.04993591	    -14.47740766	     14.49633405	     14.49633405	     17.60990258	     -0.48925816	     -1.67258093	     33.97563429	     -5.13151157	     -0.03672364	     18.27487756	     18.27487756	      8.06328247	     -7.14413633	      9.65904826	     -9.17755537	      4.65504845	      2.40162780	     46.05399229	    -14.41878952	      3.07749613	    103.80387033	     43.90090580	      0.00000000	      0.00000000	    -10.93479268	     -5.97367462	     -2.08803283	     23.14836002	     45.68526150	      0.00000000	      0.00000000
     19.89285714	     -5.59207191	     -4.92507055	      6.46242373	      1.03689610	      0.91972481	      0.46237184	      2.81046962	      3.07895250	    -14.43144742	     14.48306507	     14.48306507	     18.03634679	     -0.46560699	     -1.76655671	     33.72959545	     -5.16160827	     -0.69870397	     18.53022582	     18.53022582	      7.29900231	     -7.40352111	      9.85795782	     -8.76496644	      4.75401791	      2.54316897	     46.17390360	    -14.33307927	      3.10444674	    103.99137330	     43.89613965	      0.00000000	      0.00000000	    -11.16845651	     -6.03657578	     -2.09666820	     23.09353570	     45.68264461	      0.00000000	      0.00000000
